<svg version="1.1" xmlns="http://www.w3.org/2000/svg" xmlns:xlink="http://www.w3.org/1999/xlink" width="3072.000000pt" height="3072.000000pt" viewBox="0,0,256,256"><g fill="#ffffff" fill-rule="nonzero" stroke="none" stroke-width="1" stroke-linecap="butt" stroke-linejoin="miter" stroke-miterlimit="10" stroke-dasharray="" stroke-dashoffset="0" font-family="none" font-weight="none" font-size="none" text-anchor="none" style="mix-blend-mode: normal"><g transform="translate(0.21892,5.06031) scale(0.08333,0.08333)"><g transform="translate(0,3072) scale(0.1,-0.1)"><path d="M493,27183c-36,-7 -110,-80 -127,-126c-22,-57 -25,-123 -9,-177c7,-25 13,-70 13,-100c0,-42 7,-68 31,-110c23,-41 797,-2730 3056,-10610c3564,-12436 3175,-11085 3204,-11137c55,-102 118,-147 229,-163c62,-8 135,8 185,43c55,38 158,137 304,290c80,84 190,199 245,257c56,58 182,191 281,295c99,105 232,244 295,310c63,66 198,208 300,315c102,107 284,298 405,425c121,127 301,316 400,420c99,105 279,294 399,420c121,127 227,238 237,249c16,18 18,18 80,-7c35,-14 204,-72 374,-130c171,-58 483,-165 695,-237c212,-73 410,-140 440,-150c30,-10 228,-78 440,-150c212,-73 489,-167 615,-210c127,-43 410,-140 630,-215c220,-76 425,-145 455,-155c30,-10 195,-67 365,-126l310,-108l112,2c129,1 178,17 231,73c41,44 60,84 73,156c6,32 19,94 29,138c10,44 32,141 49,215c59,260 112,496 126,555c8,33 23,103 35,155c12,52 27,122 35,155c8,33 33,141 55,240c22,99 56,249 75,333c96,422 156,684 220,970c82,359 108,477 145,637c21,94 55,240 74,325c19,85 56,247 82,360c25,113 61,270 79,350c18,80 52,228 75,330c23,102 48,212 55,245c7,33 27,119 43,190c17,72 44,191 61,265c41,182 105,463 146,645c19,83 49,217 67,299l33,149l162,108c90,60 165,109 167,109c3,0 44,26 93,58c146,97 1137,748 1293,850c214,139 375,245 1115,730c369,241 708,464 755,494c47,30 212,139 367,242l281,186l22,56c33,91 27,146 -22,193c-27,26 -138,89 -1368,773c-465,259 -1068,596 -1340,748c-272,153 -794,444 -1160,647c-366,204 -908,506 -1205,673c-547,306 -595,333 -1265,705c-206,115 -654,364 -995,555c-341,191 -865,483 -1165,650c-300,167 -770,429 -1045,583c-275,154 -819,458 -1210,675c-390,217 -935,521 -1210,675c-275,154 -799,446 -1165,650c-366,203 -948,528 -1295,722c-346,194 -911,509 -1255,700c-344,191 -827,461 -1075,600c-247,139 -736,411 -1085,605c-349,194 -876,488 -1170,653c-614,344 -784,438 -823,455c-27,11 -107,14 -154,5zM2205,25825c61,-35 486,-272 945,-527c459,-256 1006,-561 1215,-678c209,-117 697,-389 1085,-605c388,-216 912,-508 1165,-650c253,-142 800,-447 1215,-678c415,-231 960,-535 1210,-675c250,-140 698,-390 995,-555c297,-165 839,-467 1205,-672c366,-205 985,-550 1375,-767c391,-217 937,-523 1215,-678c278,-156 582,-326 675,-378c94,-52 337,-187 540,-300c204,-113 595,-331 870,-485c275,-154 858,-479 1295,-722c437,-244 957,-534 1155,-645c198,-111 615,-344 928,-517c312,-174 567,-318 567,-322c0,-5 -268,-182 -1510,-995c-516,-337 -1228,-805 -1774,-1163c-291,-192 -543,-357 -561,-367l-32,-20l-189,170c-104,93 -234,209 -289,259c-55,49 -136,122 -180,161c-44,39 -236,210 -426,380c-190,170 -489,437 -665,594c-175,157 -387,346 -469,420c-83,74 -229,205 -325,290c-95,85 -307,274 -470,420c-163,146 -374,335 -470,420c-96,85 -244,218 -329,294c-86,77 -192,171 -236,210c-44,39 -102,92 -130,117c-27,25 -158,142 -290,259c-132,118 -242,216 -245,220c-3,3 -144,130 -315,281c-170,152 -382,341 -470,419c-88,79 -198,177 -245,219c-47,42 -190,171 -319,286c-129,116 -280,251 -336,300c-56,50 -162,144 -236,210c-413,370 -542,485 -614,549c-44,39 -102,92 -130,117c-27,25 -113,101 -190,170c-263,234 -520,463 -560,500c-22,20 -170,153 -330,295c-159,142 -353,314 -430,383c-77,69 -180,161 -230,206c-49,44 -92,82 -95,85c-3,3 -88,79 -190,170c-102,90 -230,205 -285,255c-55,50 -121,109 -146,130c-39,35 -575,513 -874,781c-95,85 -771,689 -1285,1148c-129,116 -280,251 -335,300c-55,50 -199,179 -320,286c-121,107 -354,317 -520,465c-165,149 -363,326 -440,394c-157,139 -325,301 -325,314c0,9 7,5 155,-78zM1291,25445c68,-93 168,-231 224,-306c55,-75 145,-199 200,-274c55,-76 134,-183 175,-239c41,-55 155,-211 253,-346c98,-135 187,-256 197,-270c22,-29 131,-178 275,-375c152,-208 211,-289 304,-415c124,-169 182,-248 226,-310c22,-30 92,-125 155,-211c63,-86 160,-218 215,-294c117,-160 193,-265 285,-390c36,-49 113,-154 171,-233c57,-79 152,-210 212,-290c59,-81 114,-156 122,-167c8,-11 42,-59 77,-106c35,-47 115,-156 178,-243c63,-87 169,-232 235,-321c66,-90 165,-225 220,-300c55,-76 127,-174 160,-219c33,-45 89,-122 125,-171c108,-148 263,-360 395,-540c155,-211 296,-404 377,-515c34,-47 85,-116 113,-155c28,-38 94,-128 147,-200c52,-71 171,-233 263,-360c93,-126 196,-268 229,-314c34,-46 93,-127 132,-180c39,-53 104,-142 145,-197c103,-141 218,-299 424,-579c96,-132 211,-289 255,-350c44,-60 111,-153 150,-205c39,-52 102,-140 142,-195c39,-55 74,-102 78,-105c3,-3 26,-34 52,-70c25,-36 125,-173 222,-305c97,-132 213,-289 256,-350c44,-60 141,-193 216,-295c74,-102 174,-239 222,-305c47,-66 89,-122 92,-125c4,-3 39,-50 78,-105c39,-55 121,-167 182,-250c61,-82 136,-186 168,-230c82,-112 357,-488 689,-941c82,-111 175,-239 209,-285c82,-114 381,-522 468,-640c39,-53 100,-137 135,-185c36,-49 101,-138 146,-199c44,-60 130,-177 190,-260c60,-82 154,-211 209,-287c56,-75 146,-198 201,-274c55,-75 125,-171 156,-213l57,-76l-20,-25c-11,-14 -86,-94 -166,-179c-81,-85 -152,-159 -157,-165c-6,-6 -145,-153 -310,-326c-165,-173 -482,-506 -705,-740c-222,-234 -442,-465 -490,-515c-131,-137 -315,-330 -406,-425c-44,-47 -265,-278 -489,-515c-225,-236 -452,-475 -505,-530c-53,-55 -143,-149 -201,-210c-297,-313 -505,-531 -699,-735c-118,-124 -383,-402 -589,-618c-206,-216 -377,-389 -381,-385c-7,8 -5820,20292 -5820,20308c0,11 -11,26 131,-170zM1823,25508c50,-45 94,-85 97,-88c8,-9 431,-385 636,-566c104,-91 212,-187 239,-213c28,-25 174,-156 325,-291c244,-217 398,-355 525,-469c22,-20 119,-107 215,-192c163,-145 387,-345 709,-634c74,-66 180,-160 236,-210c56,-49 224,-200 375,-335c785,-703 1002,-897 1135,-1014c55,-48 118,-105 140,-125c22,-20 126,-113 230,-206c105,-93 258,-230 341,-305c82,-74 249,-223 369,-330c121,-107 292,-260 380,-339c88,-79 194,-174 235,-211c526,-469 675,-602 790,-705c74,-66 286,-255 470,-420c184,-165 397,-354 473,-422c75,-68 199,-178 275,-246c75,-67 247,-222 382,-342c135,-121 324,-290 420,-375c96,-85 262,-234 369,-330c259,-231 435,-389 666,-595c105,-93 192,-172 195,-175c3,-3 129,-115 280,-250c151,-134 335,-298 409,-365c246,-219 409,-366 666,-595c88,-79 239,-213 335,-299c95,-86 240,-214 320,-286c324,-289 515,-460 520,-465c5,-5 74,-67 325,-291c616,-549 582,-518 690,-619c44,-41 104,-96 133,-121l53,-46l-16,-64c-14,-60 -103,-451 -180,-794c-19,-82 -68,-301 -110,-485c-42,-184 -92,-402 -110,-485c-19,-82 -52,-231 -75,-330c-39,-169 -61,-267 -145,-637c-18,-84 -52,-234 -75,-333c-23,-99 -61,-268 -85,-375c-24,-107 -63,-276 -85,-375c-23,-99 -50,-220 -61,-270c-11,-49 -33,-146 -49,-215c-33,-143 -77,-337 -150,-660c-131,-579 -180,-792 -186,-809c-4,-11 -8,-8 -18,10c-29,56 -121,228 -151,284c-18,33 -58,110 -90,170c-32,61 -61,115 -65,120c-4,6 -40,73 -80,150c-40,77 -76,145 -80,150c-4,6 -42,78 -85,160c-43,83 -81,155 -85,160c-4,6 -35,64 -70,130c-35,66 -75,143 -90,170c-26,48 -45,83 -155,290c-26,50 -60,113 -75,140c-15,28 -49,91 -75,140c-26,50 -60,113 -75,140c-15,28 -55,104 -90,170c-35,66 -66,125 -70,130c-4,6 -40,73 -80,150c-40,77 -76,145 -80,150c-4,6 -35,64 -70,130c-67,128 -122,232 -175,330c-46,85 -110,206 -163,305c-50,94 -82,141 -252,371c-63,86 -160,218 -215,294c-55,75 -127,174 -160,219c-33,45 -89,122 -125,171c-93,127 -250,342 -398,543c-241,329 -307,420 -382,523c-41,57 -91,125 -110,151c-19,25 -44,59 -55,74c-11,16 -40,55 -65,89c-25,33 -84,114 -132,180c-47,66 -117,162 -155,212c-37,51 -88,120 -113,155c-58,80 -151,207 -243,333c-41,55 -149,204 -242,330c-190,260 -299,409 -395,540c-37,50 -95,130 -131,178c-35,49 -104,144 -154,212c-82,112 -229,313 -425,580c-41,57 -114,156 -162,221c-48,66 -116,160 -152,209c-86,117 -194,265 -411,560c-96,132 -208,285 -247,340c-40,55 -124,170 -188,256c-63,86 -149,203 -190,260c-41,57 -160,218 -263,359c-103,140 -224,305 -267,365c-44,61 -111,153 -150,205c-79,106 -174,237 -300,411c-47,64 -150,205 -230,314c-80,108 -179,243 -220,300c-97,133 -180,246 -391,535c-95,129 -198,271 -231,315c-32,44 -89,123 -128,175c-39,52 -106,145 -150,205c-120,165 -221,303 -366,501c-72,99 -170,233 -218,299c-48,66 -96,131 -106,145c-44,59 -212,287 -290,395c-47,65 -139,191 -205,280c-66,90 -159,217 -207,282c-47,65 -134,183 -192,263c-59,80 -150,205 -204,279c-230,315 -300,411 -464,635c-37,50 -104,141 -147,201c-44,61 -138,189 -209,285c-287,392 -358,489 -416,570c-33,47 -62,87 -66,90c-3,3 -66,88 -139,190c-74,102 -138,191 -144,198c-24,31 11,5 96,-70zM12370,10135c34,-66 66,-124 70,-130c4,-5 35,-64 70,-130c34,-66 75,-142 90,-170c15,-27 51,-95 80,-150c50,-95 75,-142 154,-287c18,-35 59,-111 89,-169c31,-59 67,-126 80,-150c14,-24 48,-89 77,-143c29,-55 60,-113 70,-130c9,-17 47,-89 85,-161c37,-71 71,-134 75,-140c4,-5 40,-73 80,-150c40,-77 76,-144 80,-150c4,-5 38,-68 75,-140c38,-71 81,-152 95,-180c58,-108 104,-194 147,-275c25,-47 60,-112 78,-145c18,-33 56,-105 85,-160c29,-55 62,-118 75,-140c30,-54 95,-176 95,-180c0,-5 -121,35 -455,150c-170,59 -348,120 -395,135c-47,15 -258,87 -470,160c-212,72 -594,203 -850,290c-985,335 -1260,429 -1390,475c-74,25 -163,55 -197,66c-35,11 -63,22 -63,25c0,3 85,94 188,203c103,108 289,302 412,431c123,129 269,282 324,340c56,58 139,146 186,195c94,100 253,266 404,425c56,58 141,148 191,200c137,146 298,310 300,308c1,-2 31,-57 65,-123z"></path><path d="M23685,15793c-340,-40 -514,-88 -778,-213c-535,-253 -1089,-779 -1406,-1335c-305,-534 -511,-1273 -548,-1970c-14,-243 -7,-730 11,-870c3,-16 7,-59 11,-95c55,-560 253,-1288 496,-1823c53,-116 151,-314 188,-379c11,-21 30,-53 40,-72c118,-207 293,-458 465,-666c108,-129 148,-172 311,-335c228,-228 456,-416 723,-594c67,-45 122,-86 122,-90c0,-11 -165,-128 -425,-302c-127,-85 -239,-159 -250,-166c-11,-7 -45,-27 -75,-46c-160,-99 -545,-327 -554,-327c-2,0 -56,-30 -122,-66c-114,-63 -735,-374 -747,-374c-3,0 -45,-18 -92,-40c-47,-22 -88,-40 -91,-40c-2,0 -32,-13 -66,-29c-111,-50 -345,-146 -548,-224c-203,-78 -668,-230 -787,-257c-48,-11 -131,-31 -183,-44c-52,-14 -126,-31 -165,-39c-38,-8 -93,-20 -121,-27c-115,-26 -547,-92 -684,-105c-41,-4 -86,-9 -100,-11c-14,-1 -68,-6 -120,-10c-52,-3 -97,-8 -100,-9c-15,-9 -374,-20 -615,-20c-609,0 -865,26 -1260,126c-468,119 -733,248 -960,469c-62,60 -151,159 -195,216c-29,38 -59,54 -102,54c-59,0 -112,-24 -160,-71c-86,-86 -99,-205 -36,-338c53,-112 286,-326 503,-461c230,-144 578,-270 1000,-364c174,-38 185,-40 295,-56c362,-51 1216,-59 1645,-16c22,3 72,7 110,11c39,4 84,8 100,10c48,6 136,16 185,21c82,9 194,25 270,39c41,8 127,23 190,35c352,65 694,153 1062,274c233,76 348,118 618,223c91,36 451,189 535,228c39,18 102,47 140,65c115,53 534,261 615,305c41,23 111,61 155,85c80,43 114,62 180,100c19,11 51,29 70,40c19,11 50,28 68,39c358,204 748,464 1275,850c57,42 114,83 126,91c21,14 116,90 126,100c3,3 35,29 72,58c37,29 75,63 85,76c10,13 77,75 148,137c151,132 507,484 621,614c453,516 778,1026 1010,1583c225,539 355,1147 394,1837c8,140 5,741 -4,830c-3,22 -7,74 -11,115c-14,168 -16,196 -20,210c-2,8 -7,44 -10,80c-3,36 -10,91 -15,123c-6,31 -15,85 -20,120c-19,114 -71,340 -116,502c-35,125 -118,375 -144,430c-5,11 -26,61 -46,110c-125,301 -332,640 -542,889c-441,521 -949,779 -1552,790c-91,2 -178,1 -195,-1zM24042,15314c415,-58 759,-271 1072,-664c83,-104 216,-291 216,-303c0,-3 17,-34 38,-68c70,-115 171,-326 224,-464c148,-387 232,-746 273,-1165c8,-91 18,-185 21,-210c9,-81 12,-722 4,-846c-38,-563 -126,-1027 -277,-1449c-246,-691 -677,-1346 -1277,-1940c-222,-220 -579,-535 -607,-535c-53,0 -483,300 -708,494c-338,292 -700,725 -900,1079c-11,20 -31,54 -42,75c-49,85 -158,303 -194,387c-70,164 -125,299 -125,308c0,4 -13,43 -29,85c-69,183 -133,407 -200,702c-37,163 -72,389 -97,625c-18,167 -26,675 -14,830c13,158 20,236 25,265c2,14 7,48 10,75c33,284 136,693 247,985c228,596 649,1110 1198,1462c358,229 762,326 1142,272z"></path><path d="M29992,9094c-56,-28 -68,-41 -185,-199c-177,-237 -481,-537 -836,-825c-143,-116 -512,-367 -656,-446c-517,-285 -1025,-457 -1575,-533c-80,-11 -176,-23 -215,-26c-38,-3 -95,-8 -125,-11c-77,-7 -531,-7 -615,1c-361,31 -598,69 -889,141c-122,30 -325,90 -389,115l-47,19l-123,-85c-67,-47 -127,-89 -133,-94c-6,-5 -28,-20 -50,-35c-72,-48 -89,-60 -110,-82c-11,-12 -26,-23 -34,-26c-13,-4 175,-82 334,-138c404,-140 885,-240 1336,-277c155,-13 741,-9 885,5c156,16 333,39 395,52c25,6 90,19 145,30c310,63 685,182 995,315c453,194 936,506 1380,889c361,312 731,721 816,901c96,202 -107,407 -304,309z"></path></g></g></g></svg>